<?xml version="1.0" encoding="utf-8"?>
<!-- Generator: Adobe Illustrator 25.2.3, SVG Export Plug-In . SVG Version: 6.00 Build 0)  -->
<svg version="1.1" id="Capa_1" xmlns="http://www.w3.org/2000/svg" xmlns:xlink="http://www.w3.org/1999/xlink" x="0px" y="0px"
	 viewBox="0 0 1920 1080" style="enable-background:new 0 0 1920 1080;" xml:space="preserve">
<style type="text/css">
	.st0{fill:#00823D;}
	.st1{fill:#FAD501;}
</style>
<g>
	<path class="st0" d="M794.05,828.57c0-21.15-0.01-42.3,0-63.45c0-5.35,2.7-8.13,8.17-8.15c14.82-0.06,29.65-0.41,44.46,0.08
		c17.07,0.57,31.95,13.76,34.44,31.32c1.89,13.39,1.35,26.9,0.66,40.27c-0.69,13.46-11.43,28.72-30.23,32.43
		c-3.95,0.78-7.87,1.05-11.79,0.78c-4.29-0.29-5.98,1.11-5.81,5.61c0.31,7.81,0.11,15.65,0.08,23.48c-0.02,6.31-2.7,9.04-8.97,9.08
		c-7.66,0.05-15.32,0.06-22.98,0c-5.89-0.05-8.01-2.19-8.02-8C794.03,870.86,794.05,849.71,794.05,828.57z M841.03,809.64
		c0-5.99,0-11.99,0-17.98c0-6.16-0.07-12.32,0.04-18.48c0.04-2.24-1.11-3.73-2.94-3.95c-1.92-0.24-3.25,1.04-3.32,3.35
		c-0.06,2.3-0.66,4.6-0.67,6.89c-0.06,13.99-0.02,27.97-0.02,41.96c0,7.33-0.07,14.65,0.04,21.98c0.04,2.68,0.34,5.66,4.1,5.5
		c3.64-0.15,2.73-3.15,2.74-5.29C841.07,832.29,841.04,820.96,841.03,809.64z"/>
	<path class="st0" d="M785.17,809.31c0,14.82,0.01,29.64-0.01,44.46c-0.01,5.02-2.76,8.07-7.75,8.11
		c-14.49,0.1-28.99,0.53-43.45-0.09C715.32,861,700,848.47,697.99,828.9c-2.16-21.04-0.61-42.17-0.78-63.25
		c-0.05-6.72,2.87-8.7,9.77-8.7c6.49-0.01,12.99,0.06,19.48-0.02c10.35-0.12,11.23,2.26,11.44,11.58
		c0.5,21.47,0.16,42.96,0.16,64.44c0,4-0.01,7.99,0,11.99c0.01,2.32-0.41,4.76,3.23,4.91c3.87,0.16,3.77-2.3,3.77-4.91
		c-0.01-25.48,0-50.95,0-76.43c0-9.78,1.77-11.56,11.42-11.56c6.66,0,13.32-0.04,19.98,0.01c6.73,0.06,8.7,2.1,8.7,8.89
		C785.18,780.34,785.17,794.83,785.17,809.31z"/>
	<path class="st0" d="M1136.62,756.95c7.33,0,14.66-0.05,21.99,0.02c5.7,0.05,8.44,2.84,8.46,8.46c0.02,6.16,0.04,12.33-0.01,18.49
		c-0.04,6.12-1.89,7.99-7.95,8.01c-11.33,0.04-22.65,0.06-33.98,0.04c-2.84,0-5.38,0-5.21,4.05c0.17,4.01,2.93,3.77,5.58,3.78
		c10.99,0.03,21.99-0.01,32.98,0.03c6.78,0.02,8.78,1.8,8.54,8.37c-0.34,9.69,1.78,19.65-2,29.01c-5.3,13.11-14.4,21.97-29.01,23.81
		c-16.22,2.04-32.52,0.5-48.78,0.82c-5.04,0.1-8.11-3.21-8.21-8.31c-0.16-8.66-0.15-17.32-0.01-25.98c0.08-5.32,3.57-8.56,9.08-8.59
		c11.33-0.07,22.65-0.04,33.98-0.01c2.44,0.01,4.78,0.14,4.88-3.34c0.1-3.77-2.37-3.7-5.03-3.69c-11.16,0.04-22.32,0.06-33.48,0
		c-6.45-0.03-8.63-1.4-9.24-7.62c-1.77-18.11,2.95-35.46,23.1-44.54c4.09-1.84,8.39-2.71,12.83-2.78
		C1122.29,756.86,1129.45,756.95,1136.62,756.95z"/>
	<path class="st0" d="M1264.04,821.25c0,10.49,0.03,20.98-0.01,31.47c-0.02,6.4-2.68,9.17-8.87,9.18
		c-15.49,0.03-30.98,0.35-46.45-0.08c-18.55-0.51-33.61-14.68-32.61-31.64c0.98-16.57,12.59-28.85,29.59-30.24
		c3.97-0.33,7.99-0.14,11.98-0.13c4.11,0.02,6.51-1.37,6.33-6.09c-0.26-6.82-0.11-13.65-0.05-20.48c0.02-2.73-0.68-4.43-3.92-4.36
		c-3.13,0.07-3.93,1.83-3.95,4.42c-0.04,3.83,0.05,7.66-0.03,11.49c-0.11,4.87-2.1,7.05-6.81,7.1c-8.82,0.11-17.65,0.09-26.47,0
		c-4.27-0.04-7.63-4.37-6.65-8.47c3.86-16.08,17.61-26.93,32.79-26.49c9.25,0.27,18.73-1.42,27.7,1.34
		c15.43,4.75,28.37,17.8,27.52,35.99C1263.69,803.25,1264.04,812.26,1264.04,821.25z M1223.84,830.42c0.02,0,0.03,0,0.05,0
		c0-4.64-0.02-9.29,0.01-13.93c0.02-2.69-0.86-4.58-3.91-4.51c-3.1,0.07-3.69,2.21-3.69,4.75c0,9.45,0.04,18.91-0.02,28.36
		c-0.02,2.51,0.81,4.23,3.47,4.45c2.94,0.24,4.1-1.45,4.1-4.19C1223.84,840.37,1223.84,835.4,1223.84,830.42z"/>
	<path class="st0" d="M1024.98,809.94c0,11.66-0.03,23.31,0.03,34.97c0.01,2.03-0.59,4.4,2.7,4.94c3.55,0.58,4.66-1.84,4.77-4.22
		c0.38-7.63,0.68-15.31,0.29-22.94c-0.66-12.62,2.24-14.06,13.79-13.71c6.92,0.21,13.88-0.95,20.77,0.78
		c3.26,0.82,5.41,2.88,5.52,5.9c0.31,8.52,0.58,16.97-3.61,25.05c-6.72,12.97-17.45,19.96-31.52,20.99
		c-9.57,0.7-19.29,1.14-28.82-2.48c-13.62-5.18-23.97-18.79-24.02-33.34c-0.04-10.82,0.1-21.65-0.03-32.47
		c-0.24-20.02,17.06-36.43,36.56-36.43c9.68,0,19.37-0.8,28.85,2.74c12.95,4.84,24.06,21.5,22.68,35.2
		c-0.44,4.38-3.01,6.91-7.43,6.98c-8.66,0.13-17.32,0.13-25.98,0c-4.64-0.07-6.59-2.29-6.67-7.24c-0.11-6.99,0.11-13.99-0.29-20.96
		c-0.12-2.18-0.25-5.43-4.45-4.83c-3.88,0.56-3.13,3.23-3.14,5.6C1024.96,786.3,1024.98,798.12,1024.98,809.94z"/>
	<path class="st0" d="M1089.52,676.96c-9.66,0-19.32,0.17-28.98-0.05c-11.52-0.26-22.88-2.26-34.29-3.68
		c-9.79-1.22-19.62-2.16-29.42-3.28c-14.69-1.67-29.4-3.17-44.04-5.17c-6.74-0.92-8.76-3.9-8.78-10.79
		c-0.03-9.33,0.39-18.68-0.13-27.97c-0.46-8.19,3.62-11.56,9.94-13.97c11.24-4.29,22.66-8.09,33.99-12.15
		c20.2-7.23,40.38-14.56,60.6-21.71c4-1.41,8.18-2.23,12.5-2.22c20.48,0.04,40.97,0.01,61.45,0.02c8.44,0,10.57,2.12,10.57,10.41
		c0,13.49,0.02,26.98-0.01,40.47c-0.02,7.75-1.5,9.22-9.15,9.22c-3.16,0-6.33-0.01-9.49,0c-2.66,0.01-3.11-1.1-1.19-2.81
		c1.72-1.53,1.88-3.34,1.87-5.38c-0.07-9.49-0.23-18.99-0.07-28.47c0.06-3.64-1.42-4.54-4.75-4.49
		c-10.16,0.14-20.32,0.18-30.48-0.01c-3.86-0.08-4.83,1.51-4.77,5.06c0.17,9.32,0.08,18.65,0.05,27.98
		c-0.02,6.1-1.93,8.11-7.84,8.13c-8.83,0.02-17.65-0.03-26.48-0.11c-0.87-0.01-2.11,0.49-2.56-0.8c-0.34-0.97,0.56-1.44,1.09-2.03
		c0.33-0.37,0.93-0.69,0.99-1.09c1.56-9.2,1.47-18.54,0.06-27.62c-0.45-2.93-5.6-1.83-8.3-0.25c-8.27,4.85-16.37,10-24.53,15.03
		c-8.01,4.94-15.99,9.94-24.06,14.79c-1.9,1.14-4.13,2.28-4.15,4.46c-0.03,2.63,2.7,2.92,4.73,3.45
		c16.73,4.31,33.46,8.67,50.23,12.8c2.06,0.51,5.22,1.5,6.45-0.68c1.03-1.83,1.29-4.87-2.1-6.18c-1.05-0.4-0.63-1.52,0.62-2.07
		c1.24-0.55,2.44-0.83,3.79-0.83c7.66,0.04,15.32-0.06,22.98,0.04c6.55,0.09,9.15,2.45,8.97,8.87c-0.13,4.39,2.6,5.21,5.52,4.87
		c10.43-1.2,20.88-0.47,31.31-0.83c3.66-0.13,5.06-5.96,1.64-9.34c-2.85-2.82-0.03-3.21,1.04-3.3c4.91-0.41,9.97-1.09,14.71,0.76
		c3.45,1.35,3.72,4.78,3.84,7.89c0.17,4.49,0.05,8.99,0.04,13.49c-0.01,7-2.42,9.5-9.46,9.54
		C1112.17,677.01,1100.84,676.96,1089.52,676.96z M1056.73,607.16c-0.39-7.26,0.33-14.75-0.5-22.23c-0.64-5.8-0.5-5.92-6.22-3.91
		c-17.37,6.1-34.72,12.26-52.06,18.44c-14.21,5.06-28.44,10.09-42.6,15.31c-7.71,2.84-8.28,3.97-8.24,12.05
		c0.04,8.82,0.01,17.65,0.01,26.47c0,6.85,0.49,7.76,7.35,8.64c19.28,2.47,38.59,4.73,57.9,6.96c13.04,1.51,26.11,2.76,39.15,4.27
		c4.01,0.46,5.37-1.07,5.2-4.97c-0.22-4.99-0.18-9.99-0.02-14.98c0.13-4.04-1.81-5.33-5.53-4.95c-3.2,0.32-7.29-1.36-7.18,4.65
		c0.11,5.53-1.7,6.62-7.18,5.3c-7.1-1.71-14.19-3.47-21.28-5.23c-10.95-2.73-21.92-5.39-32.83-8.27c-2.84-0.75-6.11-1.67-6.83-5.1
		c-0.76-3.63,2.27-5.27,4.72-6.91c3.86-2.58,7.84-5,11.79-7.44c12.58-7.76,25.19-15.48,37.77-23.25c3.45-2.14,7.06-3.21,10.82-1.2
		c3.57,1.91,3.11,5.52,3.11,8.85c-0.01,6.49,0.12,12.99-0.05,19.48c-0.08,3.05,1.06,4.3,4.05,4.06c1.32-0.11,2.67-0.11,3.99,0
		c2.87,0.24,3.96-0.73,4.23-3.87C1056.94,622,1056.37,614.69,1056.73,607.16z"/>
	<path class="st0" d="M976.99,809.07c0,14.31,0,28.62,0,42.93c0,7.6-2.3,9.88-10.05,9.91c-6.82,0.03-13.64,0.02-20.47,0
		c-7.17-0.01-10.43-3.23-10.45-10.58c-0.05-17.8-0.02-35.61-0.02-53.41c0-9.98-0.02-19.97,0.01-29.95c0.03-8,3.05-11.03,10.88-11.03
		c7.15,0,14.31-0.03,21.46,0.01c6.04,0.04,8.63,2.67,8.63,8.69C977,780.12,976.99,794.59,976.99,809.07z"/>
	<path class="st0" d="M929.01,809.78c0,14.32,0.01,28.64-0.01,42.96c-0.01,6.46-2.37,9.03-8.8,9.14c-7.82,0.14-15.65,0.12-23.48,0
		c-5.01-0.08-7.79-2.97-7.8-8.1c-0.04-29.64-0.04-59.28,0-88.92c0.01-4.81,2.8-7.79,7.51-7.88c8.32-0.15,16.65-0.14,24.98-0.01
		c4.96,0.08,7.56,3.01,7.58,8.34C929.04,780.14,929.01,794.96,929.01,809.78z"/>
	<path class="st0" d="M810.55,486.01c-10.98,0-21.96-0.15-32.94,0.07c-4.45,0.09-6.67-1.86-7.53-5.95
		c-2.66-12.7-3.84-25.6-4.99-38.5c-0.45-5.08,1.07-6.6,6.03-6.6c21.63-0.01,43.26-0.01,64.89,0c5.25,0,6.65,1.61,7.18,7.07
		c1.19,12.39,1.51,24.88,4.75,37.03c1.49,5.59,0.21,6.87-5.45,6.87C831.85,486.02,821.2,486.01,810.55,486.01z"/>
	<path class="st0" d="M810.22,377.04c10.66,0,21.33-0.02,31.99,0.01c5.15,0.01,7.04,2.19,5.73,7.17
		c-3.23,12.33-3.91,24.97-4.76,37.59c-0.29,4.24-2.24,6.36-6.54,6.35c-21.99-0.02-43.99-0.07-65.98,0.04
		c-4.21,0.02-5.82-2.07-5.56-5.75c0.96-13.43,2.02-26.87,5.2-40.01c0.88-3.62,3.14-5.61,7.43-5.5
		C788.56,377.23,799.39,377.04,810.22,377.04z"/>
	<path class="st0" d="M1077.38,402.03c-10.33,0-20.65,0-30.98,0c-10,0-12.77-2.18-13.32-11.96c-0.44-7.77-2.15-15.29-3.34-22.91
		c-1.22-7.86,0.19-10.01,8.34-10.09c13.66-0.12,27.32-0.19,40.97,0.03c7.93,0.12,15.83-0.32,23.81,0.56
		c7.99,0.87,11.58,4.94,12.65,12.28c1.16,7.95,2.6,15.87,3.39,23.85c0.6,6.08-1.51,8.17-7.56,8.24
		c-11.32,0.13-22.65,0.04-33.97,0.04C1077.38,402.05,1077.38,402.04,1077.38,402.03z"/>
	<path class="st0" d="M1072.96,501.01c-10.82,0-21.65,0.01-32.47,0c-6.1-0.01-7.58-2.03-6.72-8.05c1.23-8.61,2.23-17.26,3.11-25.92
		c0.82-8.11,2.97-10.82,11.28-10.92c21.48-0.27,42.98-0.67,64.43,0.16c10.32,0.4,9.92,1.56,9.23,13.4
		c-0.39,6.68-1.91,13.28-2.76,19.94c-0.95,7.48-5.04,11.33-12.64,11.38C1095.27,501.06,1084.11,501.01,1072.96,501.01z"/>
	<path class="st0" d="M813.01,370.16c-10.99,0-21.97,0.03-32.96-0.01c-5.65-0.02-6.17-0.94-4.5-6.34
		c3.23-10.46,7.67-20.4,12.42-30.23c1.87-3.88,4.79-5.54,8.97-5.54c21.47,0.03,42.95-0.04,64.42,0.05c5.43,0.02,6.34,1.7,3.94,6.49
		c-4.9,9.76-9.48,19.66-12.42,30.21c-1.16,4.18-3.53,5.6-7.91,5.47C834.32,369.95,823.66,370.17,813.01,370.16z"/>
	<path class="st0" d="M812.82,493.01c10.82,0,21.64,0.1,32.45-0.05c3.97-0.05,6.39,1.14,7.61,5.24c3.11,10.46,7.37,20.48,12.35,30.2
		c2.52,4.91,1.54,6.47-4.2,6.58c-5.49,0.1-10.98,0.02-16.47,0.02c-15.81,0-31.62-0.1-47.43,0.07c-4.36,0.05-7.18-1.59-9.01-5.44
		c-4.66-9.85-9.4-19.65-12.42-30.19c-1.57-5.49-1.02-6.42,4.67-6.42C791.19,493,802,493.01,812.82,493.01z"/>
	<path class="st0" d="M1041.79,352.05c-15.69-1.15-32.43,3.72-49.43,6.43c-0.31,0.05-0.61,0.41-0.9,0.39
		c-2.91-0.21-6.56,2.11-8.46-1.71c-1.71-3.45,1.11-5.72,3.16-7.89c9.19-9.72,17.61-20.15,27.3-29.41c4-3.82,8.53-5.82,14.05-5.81
		c18.47,0.03,36.94,0.09,55.41-0.07c3.01-0.03,5.29,0.84,6.71,3.24c1.38,2.33-0.08,4.46-1.51,6.27
		c-7.06,8.89-14.21,17.71-22.51,25.5c-2.46,2.31-5.69,3.05-9.04,3.06C1052.24,352.05,1047.92,352.05,1041.79,352.05z"/>
	<path class="st0" d="M1063.66,408.04c8.36,0,15.19,0.04,22.02-0.02c3.22-0.03,6.22,0.83,7.24,3.98c1.15,3.52-2.12,4.88-4.51,6.14
		c-5.31,2.8-10.74,5.37-16.16,7.95c-1.57,0.75-3.09,1.6-3.08,3.46c0.01,1.85,1.57,2.71,3.09,3.49c5.2,2.71,10.34,5.54,15.57,8.19
		c2.64,1.34,5.37,3.2,4.87,6.09c-0.54,3.09-4.13,3.52-6.85,3.62c-6.15,0.23-12.33,0.25-18.48,0.03c-10.07-0.36-20.4,1.78-30.17-1.38
		c-9.26-2.99-18.13-7.22-27.16-10.94c-4.21-1.74-8.38-3.57-12.57-5.35c-1.9-0.81-3.4-1.82-3.63-4.19c-0.25-2.59,2.14-3.2,3.35-3.65
		c14.63-5.42,28.35-13.29,43.65-16.83C1048.8,406.8,1057.07,408.48,1063.66,408.04z"/>
	<path class="st0" d="M1014.61,241.08c9.5,0,18.99-0.08,28.49,0.04c3.27,0.04,6.58,0.34,9.8,0.93c2.95,0.54,4.36,2.37,3.2,5.58
		c-2.21,6.13-4.31,12.3-6.49,18.44c-1.07,3.02-3.14,4.12-6.46,4.07c-12.99-0.19-26.02,0.52-38.97-0.28
		c-8.83-0.55-14.98,3.02-21,8.56c-4.92,4.54-10.42,8.44-15.57,12.73c-1.97,1.65-3.96,2.36-6.17,0.84c-2.38-1.64-1.95-4.26-1.24-6.37
		c4.22-12.49,8.66-24.9,13.02-37.35c1.9-5.42,6.04-7.23,11.41-7.22C994.61,241.1,1004.61,241.08,1014.61,241.08z"/>
	<path class="st0" d="M1054.48,308.08c-11.66,0-23.31-0.07-34.97,0.04c-3.72,0.03-6.09-1.37-7.67-4.81
		c-2.93-6.38-6.26-12.58-9.24-18.94c-2.4-5.13-0.53-8.34,5.12-8.36c23.15-0.09,46.29,0.02,69.44,0.06c5.22,0.01,8.5,2.97,10.72,7.3
		c2.75,5.35,5.49,10.71,7.91,16.21c2.33,5.29,0.25,8.39-5.83,8.49c-11.82,0.18-23.64,0.05-35.47,0.05
		C1054.48,308.1,1054.48,308.09,1054.48,308.08z"/>
	<path class="st0" d="M888.46,678.96c-6.49,0-12.99,0.1-19.48-0.03c-6.62-0.13-8.34-1.95-7.02-8.12
		c4.56-21.23,9.28-42.43,14.05-63.62c0.73-3.24,2.47-5.51,6.51-5.4c8.32,0.22,16.65,0.12,24.97,0.04c2.8-0.03,5.13,0.63,5.56,3.66
		c0.49,3.39,4.03,6.82-0.15,10.3c-7.04,5.84-15.23,9.94-22.6,15.26c-3.21,2.31-6.39,4.34-6.4,9.15c0,4.05,1.55,6.46,5.06,8.11
		c8.82,4.16,17.61,8.39,26.38,12.68c6.11,2.99,5.6,2.99,3.12,9.51c-2.62,6.91-7.15,9.03-14.04,8.53
		C899.13,678.66,893.78,678.96,888.46,678.96z"/>
	<path class="st0" d="M837.54,541c9.48,0,18.95,0.03,28.43-0.01c4.54-0.02,7.82,1.45,10.6,5.53c3.67,5.38,7.83,10.5,12.61,15.08
		c4.21,4.03,3.29,6.71-2.29,8.66c-1.79,0.63-3.5,0.73-5.3,0.73c-17.12,0.01-34.27-0.55-51.36,0.25c-8.08,0.38-13.23-3.63-17.74-8.54
		c-3.38-3.69-7.32-7.03-10.01-11.44c-1.39-2.27-3.6-4.31-2.12-7.01c1.44-2.62,4.21-3.31,7.25-3.28
		C817.6,541.07,827.57,541,837.54,541z"/>
	<path class="st0" d="M836.78,322.05c-9.81,0-19.63-0.14-29.44,0.08c-3.18,0.07-5.7-0.73-7.06-3.45c-1.26-2.54,0.53-4.58,2.03-6.61
		c4.75-6.44,10.93-11.5,16.34-17.3c1.42-1.52,2.94-1.85,4.85-1.85c20.63,0.04,41.25,0.05,61.88-0.01c2.77-0.01,4.75,0.7,5.89,3.42
		c1.1,2.64-0.79,3.87-2.22,5.34c-4.8,4.94-9.15,10.22-13.06,15.9c-2.03,2.95-4.8,4.65-8.77,4.56
		C857.08,321.91,846.93,322.05,836.78,322.05z"/>
	<path class="st0" d="M995.49,215.08c11.65,0,23.29,0.1,34.94-0.05c4.26-0.06,7.56,1.48,10.56,4.33c2.13,2.02,3.85,4.45,6.62,5.91
		c1.9,1,2.91,3.31,2.4,5.54c-0.49,2.16-2.15,3.83-4.33,4.27c-2.38,0.48-4.73,1.08-7.25,1.07c-19.96-0.11-39.93-0.09-59.89-0.04
		c-4.85,0.01-8.9-1.41-12.29-5.05c-3.02-3.24-6.03-6.54-9.83-9.01c-1.43-0.93-3.27-2.35-2.29-4.46c0.88-1.91,2.68-2.56,4.95-2.54
		C971.2,215.14,983.34,215.08,995.49,215.08z"/>
	<path class="st0" d="M959.49,201.09c11.15,0,22.29,0,33.44,0c2.8,0,6.71-0.19,6.81,3.05c0.11,3.43-2.87,5.21-6.94,5.16
		c-16.3-0.22-32.61,0.06-48.9-0.2c-4.16-0.07-6.2,1.42-7.86,5.04c-3.39,7.38-7.23,14.55-10.89,21.81c-0.58,1.16-1.01,2.47-1.85,3.4
		c-1.16,1.29-2.19,3.27-4.41,2.65c-2.28-0.64-2.72-2.83-2.81-4.72c-0.2-4.48-0.64-9.08,0.09-13.45c0.83-4.97,0.56-9.89,0.82-14.83
		c0.27-5.11,2.88-7.85,8.06-7.88C936.54,201.04,948.01,201.09,959.49,201.09z"/>
	<path class="st0" d="M909.47,200.04c-0.88,15.61-1.8,30.52-4.25,45.28c-0.99,5.99-1.49,12.06-2.17,18.09
		c-0.98,8.75-5.17,11.25-12.78,7.38c-4.56-2.32-9.34-3.82-14.25-5.14c-7.09-1.9-8.19-3.95-7.16-11.15
		c2.91-20.27,8.62-39.82,15.1-59.17c2.18-6.52,6.19-8.29,12.41-5.58c3.26,1.42,6.6,2.58,9.7,4.52
		C908.79,195.95,908.78,198.47,909.47,200.04z M904.02,210.85c0.21-15,1.99-11.48-9.6-16.73c-3.15-1.43-5.12-0.33-6.12,2.8
		c-6.25,19.44-11.99,39.01-14.8,59.31c-0.35,2.54,0.29,4.17,3.02,4.76c5.86,1.27,11.48,3.26,16.81,6.03
		c2.85,1.48,4.19,0.69,4.68-2.52C900.86,245.92,902.78,227.25,904.02,210.85z"/>
	<path class="st0" d="M825.61,189.19c6.1-0.68,8.12,2.13,9.15,5.26c6.5,19.67,12.29,39.55,15.33,60.1c1.18,8-0.21,9.66-8.4,11.61
		c-4.92,1.17-9.6,3-14.14,5.19c-6.18,2.98-10.31,1.2-11.43-5.39c-1.26-7.42-2.25-14.9-3.04-22.39c-1.45-13.71-2.73-27.45-3.91-41.18
		c-0.21-2.4,0.54-4.82,2.51-6.63C816.19,191.61,822.02,190.62,825.61,189.19z M814.24,202.62c0.68,8.16,1.11,15.46,1.93,22.72
		c1.48,13.03,3.22,26.03,4.81,39.05c0.4,3.25,1.59,4.42,4.9,2.73c5.03-2.57,10.31-4.61,15.86-5.7c3.63-0.71,4.32-2.49,3.74-6.01
		c-2.96-18.05-7.61-35.66-13.17-53.05c-3.77-11.79-3.15-9.33-12.72-5.87C816.3,197.68,813.23,199.01,814.24,202.62z"/>
	<path class="st0" d="M851,608.46c-1.39,9.77-4.24,21.53-7.26,33.24c-2.36,9.14-5.09,18.18-8.5,27c-2.12,5.48-5.2,7.18-10.53,5.29
		c-3.36-1.19-6.74-2.46-9.91-4.08c-4.74-2.42-5.54-6.93-4.66-11.52c1.31-6.85,0.84-13.8,1.82-20.67
		c1.88-13.15,3.04-26.41,5.06-39.54c1.25-8.15,4.71-9.7,11.79-5.92c4.97,2.64,10.23,4.43,15.63,5.46
		C849.57,598.69,851.46,601.36,851,608.46z M815.21,659.88c-0.88,3.68,0.75,6.04,4.58,7.19c2.05,0.61,4.03,1.51,6.01,2.35
		c2.7,1.15,4.44,0.45,5.34-2.43c1.43-4.58,3.11-9.1,4.44-13.71c4.23-14.64,8.18-29.35,10.47-44.46c0.6-3.95-0.37-6.15-4.71-6.91
		c-4.72-0.83-9.17-2.76-13.52-4.83c-5.13-2.44-5.5-2.36-6.34,3.16C818.49,619.93,816.55,639.74,815.21,659.88z"/>
	<path class="st0" d="M965.92,247.81c-0.75,3.87-3.03,8.22-4.84,12.73c-5.63,14.03-10.81,28.29-18.91,41.18
		c-4.22,6.7-7.42,7.17-12.62,1.43c-5.82-6.43-11.05-13.38-17.89-18.83c-2.69-2.15-2.3-4.93-0.94-7.59
		c8.87-17.38,18.81-34.13,30.29-49.91c2.94-4.03,7.34-3.54,11.16,0.81c4,4.56,7.88,9.22,11.84,13.82
		C965.34,243,966.14,244.72,965.92,247.81z M960.73,248.59c0.69-2.72-0.2-4-1.15-5.13c-3.34-3.92-6.88-7.68-10.15-11.66
		c-2.72-3.31-4.61-2.63-6.84,0.58c-9.89,14.2-18.44,29.19-26.71,44.35c-1.43,2.62-1.1,4.47,1.18,6.51
		c5.21,4.66,10.07,9.67,14.41,15.18c3.87,4.9,4.93,4.85,7.9-0.71c8.3-15.53,14.93-31.8,21.07-48.27
		C960.68,248.83,960.86,248.19,960.73,248.59z"/>
	<path class="st0" d="M809.13,280.68c0.31,1.51-0.5,2.48-1.48,3.46c-6.43,6.43-12.84,12.86-18.87,19.69
		c-4.45,5.05-8.21,4.61-11.65-1.12c-7.39-12.28-12.82-25.53-18.11-38.81c-1.8-4.52-3.17-9.24-5.18-13.66
		c-1.53-3.35-0.84-6.1,1.26-8.57c4.59-5.4,9.13-10.87,14.37-15.68c3.05-2.8,5.55-1.81,7.97,0.82c5.66,6.14,9.77,13.39,14.14,20.39
		c5.83,9.35,10.84,19.21,16.12,28.9C808.45,277.49,809.56,278.88,809.13,280.68z M758.24,248.47c-0.11-0.51-0.04,0.33,0.25,1.1
		c6.31,16.96,13.19,33.67,21.76,49.63c1.89,3.53,3.87,3.77,6.33,0.64c4.75-6.02,9.81-11.76,15.68-16.73
		c1.99-1.68,2.19-3.48,0.98-5.73c-8.38-15.51-17.01-30.85-27.27-45.24c-2.22-3.12-3.98-2.81-6.22-0.19
		c-3.25,3.79-6.64,7.45-9.94,11.2C758.81,244.28,757.86,245.47,758.24,248.47z"/>
	<path class="st0" d="M756.25,381.25c-1.65,9.22-2.89,18.48-3.71,27.81c-0.23,2.64-0.19,5.27-0.36,7.9
		c-0.4,6.31-4.76,9.84-10.86,8.14c-13.82-3.86-26.95-9.55-39.7-16.08c-2.68-1.37-4.21-4.3-3.99-6.96
		c0.79-9.42,1.82-18.85,3.42-28.16c0.9-5.23,5.15-6.73,10.6-6.28c9.83,0.82,19.64,1.76,29.37,3.39c3.2,0.54,6.49,0.96,9.53,2.04
		C754.18,374.33,756.69,376.87,756.25,381.25z M702.63,398.73c-1.31,3.92,1.54,6.83,6.68,9.11c10.47,4.64,20.99,9.07,31.95,12.45
		c3.72,1.15,5.83,0.56,5.98-3.72c0.08-2.15,0.43-4.3,0.5-6.45c0.3-8.49,1.64-16.84,2.99-25.21c0.46-2.82,1.98-6.75-2.83-7.67
		c-12.24-2.35-24.61-3.87-37.04-4.83c-2.84-0.22-5.3,0.47-5.68,4.07C704.47,383.25,703.64,390,702.63,398.73z"/>
	<path class="st0" d="M810.06,583.7c-0.92,3.02-2.9,6.39-4.78,9.81c-7.38,13.38-15.09,26.54-23.91,39.05
		c-5.75,8.15-7.82,8.52-14.74,1.67c-4.21-4.18-7.91-8.77-11.54-13.45c-1.84-2.38-1.85-4.84-0.92-7.22
		c6.66-17.14,13.42-34.25,22.18-50.46c0.77-1.43,1.51-2.97,2.64-4.09c2.38-2.38,5.27-4.38,8.31-1.31
		c7.46,7.54,14.68,15.3,22.02,22.96C809.94,581.3,810.18,582.03,810.06,583.7z M773.63,634.06c1.52-0.49,2.25-1.6,3.03-2.67
		c10.23-14.16,18.73-29.37,27.12-44.65c1.41-2.57,1.24-4.39-1.09-6.48c-5.32-4.77-10.24-9.94-14.72-15.55
		c-3.61-4.52-4.84-4.38-7.65,0.89c-6.25,11.71-11.55,23.86-16.41,36.2c-6.5,16.53-6.53,16.52,5.9,29.3
		c0.69,0.71,1.38,1.45,2.15,2.07C772.45,633.58,773.09,633.78,773.63,634.06z"/>
	<path class="st0" d="M712.24,496.01c-7.75-0.01-10.54-2.83-11.3-10.3c-0.73-7.16-1.99-14.27-2.76-21.44
		c-0.41-3.86,0.26-7.25,4.26-9.6c12.46-7.33,26-12.02,39.59-16.51c6.12-2.02,10.93,2.14,10.99,8.82c0.1,11.4,1.69,22.6,3.97,33.74
		c0.91,4.42-2.31,9.32-7.16,10.28c-9.15,1.82-18.37,3.41-27.7,3.93C718.66,495.13,715.35,496.65,712.24,496.01z M714.88,490.96
		c10.18-0.75,21.49-2.46,32.78-4.31c3.75-0.62,4.95-2.73,4.18-6.36c-2.27-10.73-3.42-21.62-3.75-32.56
		c-0.14-4.5-2.35-5.72-6.06-4.49c-12.09,4.02-24.06,8.38-35.38,14.34c-2.7,1.42-3.84,3.38-3.47,6.42
		c0.84,6.75,1.39,13.53,2.37,20.26C706.58,491.23,706.74,491.2,714.88,490.96z"/>
	<path class="st0" d="M1006.54,497.01c-11.9-1.31-24.46-2.61-36.82-5.13c-6.35-1.29-8.01-5.07-7.06-11.56
		c1.49-10.24,3.67-20.46,3.27-30.87c-0.31-8.17,5.83-12.55,13.16-9.81c11.89,4.44,23.76,8.86,35.2,14.33
		c5.93,2.84,7.12,6.09,6.07,12.7c-1.06,6.64-1.66,13.36-2.26,20.07C1017.43,494.14,1014.47,497.04,1006.54,497.01z M1006.1,492
		c2.47-0.61,6.29,1.38,6.86-3.41c0.96-8.07,1.89-16.14,2.85-24.21c0.28-2.37-0.38-4.32-2.56-5.45
		c-11.95-6.16-24.32-11.29-37.27-14.97c-3.09-0.88-4.9,0.17-4.94,3.51c-0.14,11.48-1.75,22.81-3.76,34.08
		c-0.62,3.47,0.67,5.38,4.15,5.97C982.87,489.48,994.36,491.04,1006.1,492z"/>
	<path class="st0" d="M1021.07,398.58c1.52,6.57-2.17,9.93-7.43,12.25c-11.17,4.92-22.23,10.08-34.03,13.43
		c-8.48,2.41-11.99-0.13-12.81-8.72c-1-10.45-1.13-20.99-3.67-31.29c-1.63-6.62,1.84-11.07,8.52-12.37
		c11.61-2.25,23.37-3.29,35.06-4.81c6.87-0.89,9.83,1.34,11.47,8.16C1020.03,382.94,1020.17,390.84,1021.07,398.58z M1007.29,372.31
		c-11.1,0.72-22.13,2.1-33.08,4.05c-6.74,1.2-7.14,1.75-6,8.49c1.78,10.48,3.19,21,3.56,31.63c0.14,4.07,2.15,4.7,5.6,3.67
		c12.4-3.72,24.31-8.67,35.89-14.43c2.23-1.11,3.59-2.8,3.25-5.57c-0.93-7.58-1.8-15.16-2.58-22.76
		C1013.51,373.24,1011.52,371.35,1007.29,372.31z"/>
	<path class="st0" d="M1004.18,316.06c-0.74,2.58-1.49,4.81-3.08,6.44c-10.79,11.09-20,23.7-32.25,33.4
		c-7.03,5.57-11.33,2.65-13.69-3.59c-3.11-8.23-6.14-16.46-10.3-24.22c-2.13-3.96-2.05-7.23,1.68-10.3
		c12.07-9.94,24.36-19.54,38.29-26.84c3.38-1.77,6.81-1.54,8.86,1.36C998.81,299.54,1000.44,308.41,1004.18,316.06z M998.92,315.87
		c-2.12-5.29-4.63-10.9-6.62-16.69c-1.6-4.64-4.01-4.85-7.91-2.78c-12.26,6.53-22.61,15.73-33.83,23.73
		c-2.48,1.77-2.51,3.92-1.12,6.51c3.87,7.17,6.79,14.75,9.5,22.42c2.06,5.84,3.54,6.1,8.33,2.14c11.08-9.18,20.11-20.3,29.6-30.98
		C997.85,319.13,998.92,317.99,998.92,315.87z"/>
	<path class="st0" d="M756.18,359.12c-4.05-0.36-6.58-3.25-9.11-5.56c-10.76-9.81-20.28-20.82-29.83-31.79
		c-1.79-2.05-2.76-4.56-1.4-7.66c2.48-5.65,4.43-11.52,6.77-17.23c2.96-7.21,7.2-8.66,13.86-4.71c10.64,6.3,20.53,13.69,30.42,21.08
		c0.78,0.58,1.62,1.1,2.35,1.73c5.78,4.95,8.56,6.62,3.98,15.08c-3.79,7-6.64,14.42-9.16,21.98
		C762.79,355.85,760.26,358.45,756.18,359.12z M770.32,324.52c0.1-1.91-0.42-3.09-1.56-3.93c-11.45-8.5-22.39-17.72-35.08-24.45
		c-3.22-1.71-5.3-1.09-6.62,2.32c-2.04,5.25-4.1,10.49-6.28,15.68c-0.87,2.08-0.76,3.9,0.68,5.56
		c9.83,11.25,19.31,22.83,30.96,32.34c3.97,3.24,5.81,2.73,7.5-2.26c2.6-7.7,5.68-15.19,9.27-22.47
		C769.68,326.28,770.05,325.18,770.32,324.52z"/>
	<path class="st0" d="M731.3,573.11c-3.88,0.46-5.97-2.35-7.21-5.03c-3.01-6.48-5.49-13.21-7.96-19.93
		c-0.84-2.29,0.04-4.64,1.64-6.43c11.01-12.3,21.61-24.99,34.44-35.53c4.07-3.34,8.94-2.14,10.93,2.18
		c4.4,9.58,7.58,19.7,12.6,29.05c1.21,2.26,0.92,5.17-1.64,7.18c-12.65,9.98-24.85,20.6-39.54,27.68
		C733.45,572.83,732.46,573.11,731.3,573.11z M721.06,547.44c0.07,0.49,0.05,1.02,0.22,1.47c1.74,4.47,3.51,8.92,5.28,13.38
		c2.9,7.32,3.57,7.56,10.28,3.82c11.49-6.43,21.57-14.85,32.08-22.67c2.69-2,2.63-4.1,1.24-6.9c-3.53-7.12-6.71-14.39-9.25-21.95
		c-1.99-5.94-3.97-6.36-8.8-2.25c-10.8,9.19-19.87,20.02-29.14,30.66C721.87,544.26,720.78,545.57,721.06,547.44z"/>
	<path class="st0" d="M948.97,185.09c9.33,0,18.65,0,27.98,0c0.83,0,1.75-0.23,2.48,0.04c2.66,0.99,6.74-0.25,7.53,3.71
		c0.56,2.82-4.55,7.09-8.19,7.21c-4.32,0.14-8.66,0.03-12.99,0.03c-13.49,0-26.98-0.1-40.46,0.05c-5.18,0.06-9.07-2.17-12.56-5.64
		c-2.55-2.53-1.58-3.71,1.45-4.56c5.38-1.53,10.85-0.67,16.28-0.81C936.64,184.97,942.81,185.09,948.97,185.09z"/>
	<path class="st0" d="M857.89,188.09c1.46-0.08,1.79-0.09,2.12-0.11c10.13-0.64,11.43,0.93,9.55,11.55
		c-1.48,8.37-2.81,16.77-4.44,25.11c-0.56,2.88-1.16,6.83-4.03,7.06c-2.93,0.24-4.18-3.46-5.23-6.33
		c-3.47-9.53-5.45-19.45-7.76-29.27c-1.39-5.91,0.42-7.98,6.42-8C856.02,188.09,857.51,188.09,857.89,188.09z"/>
	<path class="st0" d="M1244.38,625.2c-4.01-0.2-6.08-2.01-6.58-5.69c-1.35-10.04-3.21-19.95-8.18-28.95
		c-1.09-1.98-2.53-3.76-3.83-5.62c-1.81-2.59-2.16-5.14,0.74-7.09c2.55-1.72,5.27-1.82,7.53,0.64c6.4,6.96,10.52,15.13,12.92,24.24
		c1.42,5.42,1.93,10.93,2.25,16.52C1249.46,623.35,1247.57,624.76,1244.38,625.2z"/>
	<path class="st0" d="M977.05,689.77c3.25-0.27,6.5,0.36,9.81-0.64c3.64-1.09,6.66,2.5,5.53,6.15c-2.03,6.55-4.88,12.74-8.64,18.46
		c-2.08,3.16-4.39,4.3-7.18,0.49c-4.58-6.23-7.97-13.06-10.12-20.42c-0.74-2.52,0.97-4.37,4.12-4.09
		C972.72,689.93,974.89,689.77,977.05,689.77z"/>
	<path class="st0" d="M925.12,639.5c0,2.49-0.02,4.99,0.01,7.48c0.04,4.77-1.47,6.33-5.96,4.95c-6.52-2-12.93-4.49-18.45-8.65
		c-3.92-2.96-3.79-4.73,0.34-7.42c5.72-3.73,11.66-7.02,18.22-9.05c4.1-1.27,5.79-0.04,5.84,4.23
		C925.14,633.85,925.12,636.67,925.12,639.5z"/>
	<path class="st0" d="M974.43,559.97c7.42,6.02,10.54,14.48,13.49,22.94c1.09,3.15-1.67,5.73-5.34,4.99
		c-5.09-1.04-10.03-1.02-15.13,0c-3.96,0.79-6.71-2.16-5.38-5.94C964.88,573.99,967.67,565.89,974.43,559.97z"/>
	<path class="st0" d="M925.34,585.93c6.4,2.14,14.21,2.84,20.35,8.03c2.05,1.74,2.41,2.88,0.19,4.92
		c-4.42,4.03-8.76,8.19-12.67,12.71c-2.92,3.38-4.81,1.46-6.27-0.79c-3.92-6.05-5.93-12.97-7.83-19.84
		C918.2,587.7,920.63,585.64,925.34,585.93z"/>
	<path class="st0" d="M951.24,683.94c-0.43,2.71-2.21,4.12-4.05,5.05c-5.98,2.99-12.26,5.29-18.76,6.81
		c-3.01,0.71-5.81-1.31-5.18-4.16c1.66-7.58,3.5-15.23,7.71-21.93c1.47-2.35,3.5-3.6,5.73-0.69c3.6,4.72,7.99,8.64,12.45,12.5
		C949.98,682.23,950.61,683.2,951.24,683.94z"/>
	<path class="st0" d="M863.44,576.99c4.82,0,9.65,0.07,14.47-0.02c3.55-0.07,6.61,1.24,6.87,4.79c0.23,3.16-2.38,4.99-5.62,5.78
		c-9.47,2.3-18.84,2.16-28.19-0.54c-0.77-0.22-1.66-0.46-2.21-0.98c-2.07-1.96-5.76-3.35-4.65-6.87c0.97-3.08,4.37-2.07,6.86-2.13
		C855.13,576.92,859.29,576.99,863.44,576.99z"/>
	<path class="st0" d="M866.82,274.07c4.23-0.42,8.65,0.88,13.11,1.91c3.11,0.72,4.84,3.22,4.6,5.89c-0.28,3.05-2.75,4.33-6.14,4.26
		c-9.96-0.21-19.94-0.08-29.9-0.07c-1.65,0-3.62,0.37-4.37-1.5c-0.85-2.09,0.33-3.7,1.92-5.17c4.52-4.2,10.37-4.25,15.89-5.28
		C863.35,273.84,864.89,274.07,866.82,274.07z"/>
	<path class="st0" d="M1163.91,616.84c1.51-11.26,3.02-22.3,10.74-31.11c1.69-1.93,4.03-3.3,6.14-4.83
		c1.77-1.27,3.21-0.83,4.64,0.85c2.18,2.56,3.26,5.66,4.64,8.6c2.41,5.14,4.78,10.3,6.97,15.54c1.01,2.41-3.14,8.53-6.12,9.13
		c-3.68,0.74-4.27-2.12-5.11-4.65c-1.18-3.56-2.34-7.13-3.67-10.63c-0.35-0.93,0.25-2.59-1.54-2.7c-1.58-0.1-2.53,1.11-3.11,2.18
		c-2.35,4.4-3.11,9.25-3.51,14.16c-0.15,1.81,0.09,3.72-0.39,5.42c-0.68,2.43-1.18,5.38-4.77,5.26c-3.52-0.12-3.68-3.19-4.64-5.51
		C1163.92,617.98,1163.97,617.28,1163.91,616.84z M1167.23,616.11c0.53,1.29-0.85,4.46,1.75,4.48c2.32,0.02,1.64-3.07,1.85-4.94
		c0.07-0.66,0.03-1.33,0.09-1.99c0.64-6.31,1.78-12.51,5.5-17.82c3.02-4.31,5.93-3.98,7.82,0.9c1.55,4,2.67,8.17,4.02,12.25
		c0.99,3.01,2.42,2.97,4.55,0.84c1.69-1.69,1.86-3.29,0.87-5.32c-2.75-5.65-5.4-11.36-8.17-17.01c-2.39-4.89-3.44-5.03-7.46-1.02
		C1169.97,594.55,1168.29,604.99,1167.23,616.11z"/>
	<path class="st0" d="M1200.32,663.96c5.42,0.16,9.73-2.36,13.66-5.73c2.23-1.91,5.29-3.88,7.36-1.7c2.05,2.16,0.96,5.89-1.43,7.98
		c-9.64,8.45-21.96,13.03-34.09,4.54c-3.78-2.65-5.75-5.99-3.98-10.89c2.22-6.13,3.96-12.44,6.25-18.55c0.9-2.4,1.83-5.77,5.84-4.25
		c3.61,1.37,6.61,2.88,4.23,7.83c-1.82,3.79-2.89,7.95-4.22,11.97C1191.72,661.91,1193.2,663.93,1200.32,663.96z M1199.46,670.26
		c7.25,0.17,13.35-2.33,18.26-7.68c0.81-0.88,1.82-1.87,0.75-2.98c-0.95-0.99-1.73,0.32-2.49,0.78c-0.99,0.61-1.89,1.36-2.83,2.05
		c-5.39,3.92-11.22,5.67-17.82,3.62c-5.54-1.72-6.97-4.33-5.11-9.69c1.58-4.54,3.24-9.05,5.01-13.52c0.73-1.86,0.74-3.23-1.34-4.02
		c-2.42-0.92-2.79,0.95-3.31,2.53c-1.62,4.89-3.2,9.78-4.81,14.67c-2.6,7.92-0.05,12.28,8.22,13.84
		C1195.78,670.19,1197.64,670.13,1199.46,670.26z"/>
	<path class="st0" d="M1207.62,608.98c-2.98,0.17-4.65-1.26-5.88-3.99c-3.34-7.4-6.99-14.65-10.43-22.01
		c-0.71-1.53-2.59-3.36-0.9-4.88c1.73-1.56,3.98-2.28,6.72-1.73c3.84,0.76,5.31,3.72,6.81,6.45c3.35,6.1,6.21,12.46,8.51,19.04
		C1214.09,606.51,1212.46,608.87,1207.62,608.98z"/>
	<path class="st0" d="M794.6,221.97c8.14-0.91,10.59,1.08,11.49,8.73c0.54,4.54,1.27,9.06,1.92,13.59c0.36,2.53-0.19,4.83-2.71,5.77
		c-2.4,0.89-4.08-0.67-5.31-2.61c-3.72-5.89-7.52-11.73-11.07-17.72c-3.19-5.38-2.17-7.16,4.07-7.75
		C793.66,221.92,794.33,221.97,794.6,221.97z"/>
	<path class="st0" d="M1215.58,615.98c1,0,2.02-0.14,2.99,0.03c4.73,0.81,4.75-1.95,4.11-5.29c-1.36-7.12-3.81-13.74-8.21-19.61
		c-1.47-1.96-2.86-4.2,0.04-6.36c2.79-2.08,4.72-0.52,6.3,1.53c7.39,9.53,11.02,20.56,12.02,32.42c0.38,4.56-1.84,7.67-6.89,8.53
		c-4.79,0.82-9.49,2.24-14.21,3.49c-1.22,0.32-2.31,0.44-3.2-0.51c-3.21-3.41-1.57-7.62-1.34-11.36c0.18-2.96,3.23-3.23,5.9-2.88
		C1213.91,616.07,1214.75,615.98,1215.58,615.98z M1216.6,587.26c-1.22,2.04,0.6,3.05,1.43,4.3c4.4,6.61,7.03,13.86,7.8,21.75
		c0.47,4.81-1.57,6.75-6.39,6.33c-1.98-0.17-3.95-0.42-5.93-0.53c-4-0.21-3.33,2.57-3.34,5.1c0,3,1.13,3.71,4,2.91
		c3.66-1.01,7.44-1.59,11.17-2.37c3.28-0.68,4.8-2.65,4.46-6.04c-1.02-10.2-3.62-19.87-9.54-28.41
		C1219.37,589.01,1218.59,587.39,1216.6,587.26z"/>
	<path class="st0" d="M755.78,286.07c7.11,0,11.95,5.69,10.9,11.86c-0.53,3.08-3.07,4.21-5.92,2.38c-3.28-2.11-6.74-4.04-9.28-7.14
		c-1.11-1.35-3.16-2.28-2.43-4.5c0.7-2.13,3.05-1.57,4.57-2.39C754.43,285.85,755.57,286.08,755.78,286.07z"/>
	<path class="st0" d="M1233.48,661.07c-3,0.03-5.57-1.16-7.95-4.39c-2.98-4.06-0.42-4.89,2.33-5.56c2.87-0.7,5.97-0.32,8.58,1.08
		c2.3,1.23,4.72,3.42,4.23,6.09C1240.07,661.56,1236.68,660.95,1233.48,661.07z"/>
	<path class="st1" d="M1056.73,607.16c-0.36,7.53,0.21,14.84-0.42,22.17c-0.27,3.14-1.36,4.11-4.23,3.87c-1.32-0.11-2.67-0.1-3.99,0
		c-3,0.24-4.13-1.01-4.05-4.06c0.17-6.49,0.04-12.99,0.05-19.48c0-3.33,0.46-6.94-3.11-8.85c-3.76-2.01-7.36-0.94-10.82,1.2
		c-12.57,7.78-25.18,15.49-37.77,23.25c-3.96,2.44-7.93,4.86-11.79,7.44c-2.46,1.64-5.48,3.29-4.72,6.91
		c0.72,3.43,3.99,4.35,6.83,5.1c10.91,2.87,21.88,5.54,32.83,8.27c7.09,1.76,14.18,3.53,21.28,5.23c5.48,1.32,7.28,0.23,7.18-5.3
		c-0.11-6.01,3.98-4.32,7.18-4.65c3.72-0.38,5.66,0.92,5.53,4.95c-0.16,4.99-0.2,10,0.02,14.98c0.17,3.9-1.19,5.43-5.2,4.97
		c-13.04-1.51-26.11-2.76-39.15-4.27c-19.31-2.23-38.62-4.49-57.9-6.96c-6.86-0.88-7.35-1.79-7.35-8.64
		c0-8.82,0.03-17.65-0.01-26.47c-0.03-8.08,0.54-9.21,8.24-12.05c14.16-5.22,28.38-10.25,42.6-15.31
		c17.34-6.18,34.69-12.34,52.06-18.44c5.72-2.01,5.58-1.89,6.22,3.91C1057.06,592.42,1056.34,599.9,1056.73,607.16z M965.82,626.16
		c6.33-0.14,9.93-2.44,12.09-6.84c0.54-1.11,1.19-2.52,0.06-3.74c-1.12-1.19-2.46-0.75-3.65-0.17c-3.74,1.83-7.62,3.19-11.65,4.19
		c-1.17,0.29-2.84,0.14-2.87,2.09c-0.02,1.56,1.1,2.34,2.2,3.08C963.56,625.84,965.33,626.2,965.82,626.16z"/>
	<path class="st1" d="M904.02,210.85c-1.24,16.4-3.16,35.07-6.01,53.65c-0.49,3.21-1.83,4-4.68,2.52
		c-5.33-2.77-10.95-4.76-16.81-6.03c-2.73-0.59-3.37-2.22-3.02-4.76c2.81-20.3,8.55-39.87,14.8-59.31c1-3.12,2.97-4.23,6.12-2.8
		C906.01,199.37,904.24,195.85,904.02,210.85z"/>
	<path class="st1" d="M814.24,202.62c-1-3.61,2.06-4.94,5.36-6.14c9.57-3.46,8.95-5.93,12.72,5.87c5.56,17.39,10.21,35,13.17,53.05
		c0.58,3.53-0.11,5.3-3.74,6.01c-5.55,1.09-10.84,3.13-15.86,5.7c-3.32,1.69-4.51,0.52-4.9-2.73c-1.59-13.02-3.33-26.02-4.81-39.05
		C815.34,218.08,814.92,210.78,814.24,202.62z"/>
	<path class="st1" d="M815.21,659.88c1.33-20.15,3.27-39.95,6.26-59.65c0.84-5.52,1.21-5.6,6.34-3.16c4.35,2.07,8.8,4.01,13.52,4.83
		c4.34,0.76,5.31,2.96,4.71,6.91c-2.29,15.11-6.25,29.82-10.47,44.46c-1.33,4.61-3,9.13-4.44,13.71c-0.9,2.88-2.64,3.58-5.34,2.43
		c-1.98-0.84-3.96-1.73-6.01-2.35C815.96,665.93,814.33,663.56,815.21,659.88z"/>
	<path class="st1" d="M960.73,248.59c0.13-0.4-0.05,0.24-0.28,0.86c-6.14,16.48-12.78,32.74-21.07,48.27
		c-2.97,5.56-4.04,5.61-7.9,0.71c-4.34-5.5-9.21-10.52-14.41-15.18c-2.28-2.04-2.61-3.89-1.18-6.51
		c8.27-15.17,16.82-30.16,26.71-44.35c2.23-3.21,4.12-3.89,6.84-0.58c3.27,3.98,6.8,7.74,10.15,11.66
		C960.53,244.59,961.42,245.87,960.73,248.59z"/>
	<path class="st1" d="M758.24,248.47c-0.38-3,0.58-4.19,1.57-5.32c3.3-3.74,6.69-7.41,9.94-11.2c2.24-2.62,4-2.92,6.22,0.19
		c10.25,14.38,18.89,29.73,27.27,45.24c1.21,2.25,1.01,4.05-0.98,5.73c-5.87,4.97-10.93,10.71-15.68,16.73
		c-2.47,3.12-4.44,2.89-6.33-0.64c-8.57-15.97-15.45-32.68-21.76-49.63C758.2,248.81,758.13,247.96,758.24,248.47z"/>
	<path class="st1" d="M702.63,398.73c1.01-8.72,1.85-15.48,2.56-22.25c0.38-3.6,2.84-4.29,5.68-4.07
		c12.43,0.96,24.79,2.48,37.04,4.83c4.81,0.92,3.28,4.85,2.83,7.67c-1.35,8.37-2.69,16.72-2.99,25.21c-0.07,2.15-0.42,4.3-0.5,6.45
		c-0.16,4.28-2.26,4.87-5.98,3.72c-10.96-3.38-21.48-7.81-31.95-12.45C704.16,405.55,701.31,402.64,702.63,398.73z"/>
	<path class="st1" d="M773.63,634.06c-0.54-0.28-1.18-0.48-1.67-0.88c-0.77-0.63-1.46-1.36-2.15-2.07
		c-12.43-12.79-12.4-12.78-5.9-29.3c4.86-12.35,10.16-24.5,16.41-36.2c2.81-5.27,4.04-5.41,7.65-0.89
		c4.47,5.6,9.4,10.78,14.72,15.55c2.32,2.09,2.5,3.9,1.09,6.48c-8.39,15.28-16.89,30.49-27.12,44.65
		C775.88,632.46,775.15,633.57,773.63,634.06z"/>
	<path class="st1" d="M714.88,490.96c-8.14,0.24-8.3,0.26-9.32-6.71c-0.98-6.72-1.53-13.51-2.37-20.26c-0.38-3.05,0.77-5,3.47-6.42
		c11.32-5.96,23.29-10.32,35.38-14.34c3.71-1.23,5.92-0.02,6.06,4.49c0.34,10.95,1.48,21.83,3.75,32.56
		c0.77,3.63-0.43,5.74-4.18,6.36C736.37,488.5,725.06,490.21,714.88,490.96z"/>
	<path class="st1" d="M1006.1,492c-11.73-0.96-23.23-2.52-34.68-4.48c-3.48-0.59-4.77-2.5-4.15-5.97
		c2.01-11.27,3.62-22.6,3.76-34.08c0.04-3.34,1.85-4.39,4.94-3.51c12.95,3.67,25.32,8.81,37.27,14.97c2.18,1.12,2.85,3.08,2.56,5.45
		c-0.96,8.07-1.89,16.14-2.85,24.21C1012.38,493.38,1008.57,491.39,1006.1,492z"/>
	<path class="st1" d="M1007.29,372.31c4.23-0.96,6.22,0.93,6.64,5.08c0.78,7.59,1.65,15.18,2.58,22.76
		c0.34,2.78-1.02,4.46-3.25,5.57c-11.58,5.76-23.48,10.71-35.89,14.43c-3.45,1.03-5.46,0.4-5.6-3.67
		c-0.37-10.63-1.78-21.15-3.56-31.63c-1.14-6.74-0.75-7.29,6-8.49C985.16,374.41,996.19,373.03,1007.29,372.31z"/>
	<path class="st1" d="M998.92,315.87c0,2.12-1.07,3.26-2.04,4.35c-9.49,10.69-18.52,21.81-29.6,30.98c-4.79,3.96-6.27,3.7-8.33-2.14
		c-2.71-7.67-5.63-15.25-9.5-22.42c-1.4-2.59-1.37-4.74,1.12-6.51c11.21-7.99,21.57-17.2,33.83-23.73c3.9-2.08,6.31-1.87,7.91,2.78
		C994.29,304.98,996.8,310.59,998.92,315.87z"/>
	<path class="st1" d="M770.32,324.52c-0.27,0.65-0.63,1.75-1.14,2.78c-3.59,7.29-6.67,14.77-9.27,22.47
		c-1.69,4.99-3.53,5.5-7.5,2.26c-11.64-9.51-21.12-21.09-30.96-32.34c-1.45-1.65-1.56-3.48-0.68-5.56
		c2.18-5.19,4.24-10.44,6.28-15.68c1.33-3.42,3.4-4.03,6.62-2.32c12.69,6.73,23.63,15.95,35.08,24.45
		C769.89,321.44,770.42,322.62,770.32,324.52z"/>
	<path class="st1" d="M721.06,547.44c-0.27-1.87,0.82-3.18,1.91-4.43c9.27-10.64,18.34-21.48,29.14-30.66
		c4.83-4.11,6.81-3.7,8.8,2.25c2.54,7.56,5.72,14.83,9.25,21.95c1.39,2.8,1.45,4.9-1.24,6.9c-10.51,7.82-20.59,16.24-32.08,22.67
		c-6.7,3.75-7.38,3.5-10.28-3.82c-1.77-4.46-3.54-8.91-5.28-13.38C721.1,548.46,721.12,547.93,721.06,547.44z"/>
	<path class="st1" d="M1167.23,616.11c1.06-11.13,2.74-21.57,10.82-29.62c4.02-4.01,5.07-3.87,7.46,1.02
		c2.76,5.65,5.42,11.35,8.17,17.01c0.99,2.03,0.82,3.63-0.87,5.32c-2.13,2.13-3.56,2.16-4.55-0.84c-1.34-4.08-2.47-8.25-4.02-12.25
		c-1.89-4.88-4.8-5.21-7.82-0.9c-3.72,5.31-4.86,11.51-5.5,17.82c-0.07,0.66-0.02,1.33-0.09,1.99c-0.21,1.87,0.47,4.96-1.85,4.94
		C1166.38,620.57,1167.76,617.41,1167.23,616.11z"/>
	<path class="st1" d="M1199.46,670.26c-1.83-0.13-3.68-0.07-5.47-0.41c-8.27-1.56-10.82-5.92-8.22-13.84
		c1.61-4.89,3.19-9.79,4.81-14.67c0.52-1.57,0.89-3.44,3.31-2.53c2.07,0.78,2.07,2.16,1.34,4.02c-1.77,4.47-3.43,8.98-5.01,13.52
		c-1.86,5.37-0.43,7.98,5.11,9.69c6.61,2.05,12.43,0.29,17.82-3.62c0.94-0.68,1.84-1.44,2.83-2.05c0.76-0.46,1.54-1.77,2.49-0.78
		c1.06,1.1,0.05,2.1-0.75,2.98C1212.81,667.93,1206.72,670.43,1199.46,670.26z"/>
	<path class="st1" d="M1216.6,587.26c1.99,0.13,2.77,1.75,3.66,3.04c5.92,8.54,8.52,18.21,9.54,28.41c0.34,3.39-1.18,5.36-4.46,6.04
		c-3.73,0.78-7.51,1.36-11.17,2.37c-2.87,0.8-4,0.09-4-2.91c0-2.53-0.67-5.31,3.34-5.1c1.98,0.1,3.95,0.36,5.93,0.53
		c4.82,0.42,6.87-1.52,6.39-6.33c-0.78-7.89-3.41-15.13-7.8-21.75C1217.2,590.31,1215.38,589.3,1216.6,587.26z"/>
	<path class="st0" d="M965.82,626.16c-0.49,0.03-2.26-0.32-3.83-1.39c-1.1-0.75-2.22-1.52-2.2-3.08c0.03-1.95,1.7-1.8,2.87-2.09
		c4.03-1,7.92-2.36,11.65-4.19c1.19-0.58,2.54-1.02,3.65,0.17c1.14,1.21,0.49,2.63-0.06,3.74
		C975.75,623.72,972.16,626.02,965.82,626.16z"/>
</g>
</svg>
